<svg width="115" height="30" viewBox="0 0 115 30" fill="none" xmlns="http://www.w3.org/2000/svg">
<g clip-path="url(#clip0_90_37)">
<path d="M57.3057 15.6377V18.8508H53.2307C55.65 20.9565 57.2157 23.452 54.8414 26.3503C50.9615 31.0822 39.1396 31.05 34.6849 27.2007C32.6496 25.4421 31.9396 22.9187 33.7198 20.678L35.6436 18.8508H31.1396V15.6377H57.3057ZM42.6763 19.7698C36.6367 20.3931 35.4828 25.1143 41.8098 26.2925C44.1369 26.7252 50.6355 26.5774 51.0752 23.4392C51.5771 19.8383 45.0592 19.5235 42.6763 19.7698Z" fill="#2E008B"/>
<path d="M110.282 7.49748V2.35646H115V15.9587L114.679 16.2801H110.282V10.7106H106.314C105.239 13.5061 102.762 15.4189 99.8282 16.0144C96.0041 16.792 89.6277 14.9605 88.8856 10.5521C87.2942 1.12476 103.189 -0.845966 106.205 7.39252L110.282 7.49748ZM96.7118 5.4068C93.5226 5.94232 92.3086 10.0573 94.8545 12.0858C98.6207 15.0869 103.899 10.4514 100.81 6.77988C99.8668 5.65743 98.1381 5.16689 96.7118 5.4068Z" fill="#2E008B"/>
<path d="M46.7967 0V2.57051H56.8771V5.78365H53.66C55.0755 7.86362 55.4895 9.51303 53.7694 11.5694C50.1962 15.8429 39.586 15.708 35.541 12.2056C34.1319 10.9846 33.3748 9.15102 34.0955 7.34309C34.3464 6.71546 34.8933 6.407 34.9984 5.78365H31.7812V2.57051H42.0761V0H46.7946H46.7967ZM42.6745 5.84363C40.9372 6.05141 37.8852 7.11603 38.5694 9.38665C39.5732 12.7197 50.0847 12.5205 50.2412 8.8854C50.372 5.86719 44.7442 5.59514 42.6724 5.84363H42.6745Z" fill="#2E008B"/>
<path d="M97.1985 17.7793V19.9214H110.282V17.7793H115V28.0613H93.2306C93.1427 28.0613 92.48 27.2088 92.48 27.0974V17.7793H97.1985ZM110.282 24.8482L110.247 23.488L109.96 23.1345H97.1985V24.8482H110.282Z" fill="#2E008B"/>
<path d="M19.1289 2.5705V5.78364H12.5874C12.1348 6.16707 12.4673 7.32595 12.5767 7.93644C13.1944 11.4152 15.2726 14.3027 18.7 15.4252C18.7879 15.7487 18.6163 15.7786 18.4898 15.9607C18.256 16.297 16.7461 17.9807 16.4544 17.9871C14.908 18.0171 10.1702 13.8379 9.90429 11.9957C8.48231 13.9279 6.71932 15.6801 4.61102 16.8797C4.03408 17.2074 2.43623 18.1735 1.86143 17.7965C1.69629 17.6872 0.0962948 15.8665 0.0426757 15.7401C-0.107458 15.3845 0.186375 15.4509 0.315061 15.3738C3.45285 13.5252 5.59975 12.5505 6.75149 8.7333C6.98956 7.94287 7.45497 6.43912 7.01315 5.7815H0.469483V2.56836H19.1289V2.5705Z" fill="#2E008B"/>
<path d="M75.2148 2.78516C75.3392 2.81086 75.7489 3.10647 75.8475 3.22429C76.8856 4.48169 75.5515 9.18144 75.0454 10.7559C73.2245 16.4389 69.6041 21.8326 64.802 25.3907L61.0851 23.5763L60.9521 23.1372C65.6813 19.9476 69.6749 14.2304 71.0154 8.65877C71.1269 8.19608 71.7553 5.78409 71.1398 5.78409H61.3811V2.78516H75.2148Z" fill="#2E008B"/>
<path d="M84.3297 2.14258H79.8257V28.2761H84.3297V2.14258Z" fill="#2E008B"/>
<path d="M8.19064 19.4932V25.2768H25.9922V28.49H4.22283C4.16922 28.49 3.47217 27.7938 3.47217 27.7402V19.4932H8.19064Z" fill="#2E008B"/>
<path d="M25.9924 2.14258H21.2739V20.3504H25.9924V2.14258Z" fill="#2E008B"/>
</g>
<defs>
<clipPath id="clip0_90_37">
<rect width="115" height="30" fill="white"/>
</clipPath>
</defs>
</svg>
