<svg width="175" height="42" viewBox="0 0 175 42" fill="none" xmlns="http://www.w3.org/2000/svg">
<g clip-path="url(#clip0_39_76)">
<path d="M147.181 11.243C147.181 11.6358 147.239 12.0434 147.392 12.4214C148.07 14.1334 149.796 15.1858 151.989 14.289C152.513 14.0741 167.031 8.12282 167.031 8.12282C167.031 8.12282 161.313 22.8714 161.094 23.4198C160.264 25.5394 161.262 27.4442 162.959 28.0889C163.338 28.2298 163.731 28.2965 164.117 28.2965C165.508 28.2965 166.732 27.459 167.337 25.7914C167.424 25.5394 174.577 5.56591 174.738 5.08417C174.832 4.80254 174.993 4.12811 175 3.66861C175 2.67549 174.643 1.74907 173.951 1.045C173.259 0.355744 172.356 0 171.394 0C170.928 0 170.549 0.0815246 169.974 0.274219C169.631 0.385389 151.202 7.36686 149.621 7.95977C148.04 8.56008 147.174 9.83483 147.174 11.2504" fill="#ED1C24"/>
<path d="M147.181 11.243C147.181 11.6358 147.239 12.0434 147.392 12.4214C148.07 14.1334 149.796 15.1858 151.989 14.289C152.513 14.0741 167.031 8.12282 167.031 8.12282C167.031 8.12282 161.313 22.8714 161.094 23.4198C160.264 25.5394 161.262 27.4442 162.959 28.0889C163.338 28.2298 163.731 28.2965 164.117 28.2965C165.508 28.2965 166.732 27.459 167.337 25.7914C167.424 25.5394 174.577 5.56591 174.738 5.08417C174.832 4.80254 174.993 4.12811 175 3.66861C175 2.67549 174.643 1.74907 173.951 1.045C173.259 0.355744 172.356 0 171.394 0C170.928 0 170.549 0.0815246 169.974 0.274219C169.631 0.385389 151.202 7.36686 149.621 7.95977C148.04 8.56008 147.174 9.83483 147.174 11.2504" fill="#ED1C24"/>
<path d="M86.6113 34.5218V32.2317C89.0151 31.5944 90.7707 29.6674 90.7707 27.3847C90.7707 25.9395 90.0641 24.6425 88.9423 23.7161H91.3971V21.1073H86.7133V18.5801H83.0638V21.1073H78.2707V23.7161H80.8348C79.713 24.6425 79.0064 25.9395 79.0064 27.3847C79.0064 29.6007 80.6672 31.4758 82.9691 32.165V34.5144H77.4985V37.1973H89.9694C91.0402 37.1973 92.2203 37.0343 92.2276 37.0269V34.4107C92.2276 34.4107 91.3534 34.5144 90.2681 34.5144H86.6186L86.6113 34.5218ZM84.8849 24.5388C86.2252 24.5388 87.3106 25.7839 87.3106 27.318C87.3106 28.8522 86.2179 30.0973 84.8849 30.0973C83.5519 30.0973 82.4592 28.8522 82.4592 27.318C82.4592 25.7839 83.5519 24.5388 84.8849 24.5388Z" fill="#454B52"/>
<path d="M96.7147 19.1733H93.0652V41.2739H96.7147V28.5783H100.306V25.8954H96.7147V19.1733Z" fill="#454B52"/>
<path d="M140.945 30.9497C142.016 30.9497 143.189 30.7866 143.204 30.7866V28.1704C143.204 28.1704 142.329 28.2742 141.237 28.2742H135.577C134.732 28.2593 134.309 27.8814 134.295 27.118V22.5452H141.455V19.8623H130.602V27.785C130.602 29.7638 132.335 30.9497 134.003 30.9497H140.938H140.945Z" fill="#454B52"/>
<path d="M47.9386 36.827H38.651V34.1145C41.6813 33.44 43.9321 31.1277 43.9321 28.3855C43.9321 26.9107 43.2838 25.5618 42.213 24.5242H46.0883V21.8413H38.6583V19.3066H35.0088V21.8413H27.5787V24.5242H31.454C30.3832 25.5618 29.7349 26.9107 29.7349 28.3855C29.7349 31.1277 31.9785 33.44 35.0088 34.1145V36.827H25.7212V39.5099H47.9386V36.827ZM33.4863 28.304C33.4863 26.4734 34.9869 24.9837 36.8299 24.9837C38.6728 24.9837 40.1734 26.4734 40.1734 28.304C40.1734 30.1346 38.6728 31.6243 36.8299 31.6243C34.9869 31.6243 33.4863 30.1346 33.4863 28.304Z" fill="#454B52"/>
<path d="M6.8837 42.0001H18.1818V33.5957C18.1818 33.1362 17.8176 32.7656 17.3732 32.7656H3.47461V38.8355C3.47461 40.6661 4.90963 41.9927 6.87642 41.9927M7.12408 35.4559H14.5323V39.3247H8.40614C7.51744 39.3247 7.13865 38.9689 7.12408 38.1833V35.4559Z" fill="#454B52"/>
<path d="M22.2174 27.9926H17.6719C17.8904 27.1551 18.4295 24.5611 18.4295 20.0254V19.8994H3.27797V22.5823H14.6052C14.6052 22.7602 14.6052 22.9825 14.6052 23.1975C14.6052 25.6951 14.4814 27.333 14.4158 27.9926H0V30.6755H22.2174V27.9926Z" fill="#454B52"/>
<path d="M58.6248 37.4419V33.8696H54.9316V38.1089C54.9316 40.0877 56.6653 41.2735 58.3334 41.2735H70.0613V38.5981H59.9069C59.0619 38.5832 58.6394 38.2053 58.6248 37.4419Z" fill="#454B52"/>
<path d="M51.7046 32.284H61.4292V36.4417H65.0787V32.284H73.922V29.6011H51.7046V32.284Z" fill="#454B52"/>
<path d="M58.6903 27.9853H69.9884V19.1807H55.2812V24.8281C55.2812 26.6587 56.7163 27.9853 58.6903 27.9853ZM58.938 21.8562H66.3462V25.3024H60.2201C59.3314 25.3024 58.9526 24.9467 58.938 24.1611V21.8562Z" fill="#454B52"/>
<path d="M137.485 37.4566V32.9209H133.836V38.1237C133.836 39.9542 135.271 41.2809 137.245 41.2809H148.485V38.6054H138.767C137.879 38.6054 137.5 38.2496 137.485 37.4566Z" fill="#454B52"/>
<path d="M148.434 19.1582H144.857V33.2397H148.434V26.3768H152.018V23.7013H148.434V19.1582Z" fill="#454B52"/>
<path d="M121.059 25.8584H119.646V19.1733H116.266V41.2739H119.646V28.6006H121.059V41.2739H124.446V19.1733H121.059V25.8584Z" fill="#454B52"/>
<path d="M111.109 22.6121H114.904V19.9292H104.159V22.6121H107.78L103.751 34.6852H107.219L109.411 27.8667C111.64 30.3199 112.172 34.6852 112.172 34.6852H115.268C115.268 34.6852 115.108 28.9414 110.577 24.2352L111.101 22.6047L111.109 22.6121Z" fill="#454B52"/>
</g>
<defs>
<clipPath id="clip0_39_76">
<rect width="175" height="42" fill="white"/>
</clipPath>
</defs>
</svg>
